<svg xmlns="http://www.w3.org/2000/svg" width="12" height="9" viewBox="0 0 12 9">
  <path d="M11.9842667 1.2068L8.60306667 4.4 11.9841333 7.59346667C11.9934667 7.53026667 12 7.46586667 12 7.4L12 1.4C12 1.33413333 11.9936 1.27 11.9842667 1.2068zM6.7404 5.24186667L11.6988.558933333C11.4538667.259066667 11.0817333.0666666667 10.6666667.0666666667L1.33333333.0666666667C.918266667.0666666667.546133333.259066667.301066667.5588L5.2596 5.242C5.66093333 5.62106667 6.3392 5.62106667 6.7404 5.24186667zM.0157333333 1.20653333C.00653333333 1.26973333 0 1.33413333 0 1.4L0 7.4C0 7.46586667.00653333333 7.53026667.0157333333 7.59346667L3.3968 4.39973333.0157333333 1.20653333z"/>
  <path d="M7.19813333,5.72666667 C6.86773333,6.03893333 6.43386667,6.19493333 6,6.19493333 C5.566,6.19493333 5.13213333,6.03893333 4.80186667,5.72666667 L3.8824,4.85826667 L0.3012,8.2412 C0.546133333,8.54093333 0.918266667,8.73333333 1.33333333,8.73333333 L10.6666667,8.73333333 C11.0817333,8.73333333 11.4538667,8.54093333 11.6988,8.2412 L8.1176,4.8584 L7.19813333,5.72666667 Z"/>
</svg>
