<svg xmlns="http://www.w3.org/2000/svg" width="11" height="15" viewBox="0 0 11 15">
  <path d="M9.6233871,8.6233871 C11.558871,6.68790323 11.558871,3.46209677 9.6233871,1.5266129 C7.68790323,-0.408870968 4.46209677,-0.408870968 2.5266129,1.5266129 C0.591129032,3.46209677 0.591129032,6.68790323 2.5266129,8.6233871 L5.39399642,11.4907706 L5.39399642,12.9244624 L4.60546595,12.9244624 C4.17535842,12.9244624 3.88862007,13.2112007 3.88862007,13.6413082 C3.88862007,14.0714158 4.17535842,14.3581541 4.60546595,14.3581541 L7.47284946,14.3581541 C7.90295699,14.3581541 8.18969534,14.0714158 8.18969534,13.6413082 C8.18969534,13.2112007 7.90295699,12.9244624 7.47284946,12.9244624 L6.75600358,12.9244624 L6.75600358,11.419086 L9.6233871,8.6233871 Z M6.03915771,7.18969534 C4.82051971,7.18969534 3.88862007,6.2577957 3.88862007,5.03915771 C3.88862007,3.82051971 4.82051971,2.88862007 6.03915771,2.88862007 C7.2577957,2.88862007 8.18969534,3.82051971 8.18969534,5.03915771 C8.18969534,6.2577957 7.2577957,7.18969534 6.03915771,7.18969534 Z" transform="translate(-1)"/>
</svg>
