<svg xmlns="http://www.w3.org/2000/svg" width="14" height="12" viewBox="0 0 14 12">
  <path fill-rule="evenodd" d="M14,3.68380456 C14,4.35047122 10.6666667,4.35047122 10.6666667,3.68380456 C10.6666667,3.41713789 10.6666667,3.10602678 10.6666667,2.88380456 C10.6666667,1.95047122 3.33333333,1.95047122 3.33333333,2.88380456 C3.33333333,3.10602678 3.33333333,3.41713789 3.33333333,3.68380456 C3.33333333,4.35047122 0,4.35047122 0,3.68380456 C0,-1.33841767 14,-1.11619544 14,3.68380456 C14,3.68380456 14,3.68380456 14,3.68380456 Z M2.57777778,4.61713789 L1.06666667,10.0393601 C0.933333333,10.528249 1.37777778,11.328249 1.86666667,11.328249 C5.28888889,11.328249 8.71111111,11.328249 12.1333333,11.328249 C12.6222222,11.328249 13.0222222,10.528249 12.8888889,10.0393601 L11.3777778,4.61713789 C10.7555556,4.528249 10.1333333,4.26158233 10.1333333,3.68380456 C10.1333333,3.46158233 10.1333333,3.23936011 10.1333333,3.01713789 C9.24444444,2.57269344 4.71111111,2.57269344 3.86666667,3.01713789 C3.86666667,3.23936011 3.86666667,3.46158233 3.86666667,3.68380456 C3.86666667,4.26158233 3.2,4.528249 2.57777778,4.61713789 Z M6.97777778,4.35047122 C5.68888889,4.35047122 4.66666667,5.41713789 4.66666667,6.70602678 C4.66666667,7.99491567 5.68888889,9.01713789 6.97777778,9.01713789 C8.26666667,9.01713789 9.33333333,7.99491567 9.33333333,6.70602678 C9.33333333,5.41713789 8.26666667,4.35047122 6.97777778,4.35047122 Z"/>
</svg>
